<?xml version="1.0" encoding="utf-8"?>
<!-- Generator: Adobe Illustrator 24.0.2, SVG Export Plug-In . SVG Version: 6.00 Build 0)  -->
<svg version="1.1" id="Capa_1" xmlns="http://www.w3.org/2000/svg" xmlns:xlink="http://www.w3.org/1999/xlink" x="0px" y="0px"
	 viewBox="0 0 566.93 425.2" style="enable-background:new 0 0 566.93 425.2;" xml:space="preserve">
<style type="text/css">
	.st0{fill:#357776;}
	.st1{fill:#52A39C;}
	.st2{fill:#53BEB4;}
	.st3{fill:#263B50;}
	.st4{fill:#EAE2D7;}
	.st5{fill:#F9FDFC;}
	.st6{fill:#708694;}
	.st7{fill:#293D46;}
	.st8{fill:#394F5C;}
	.st9{fill:#303C44;}
	.st10{fill:#2E3F3E;}
</style>
<g>
	<path class="st0" d="M543.92,124.18v24.2c0,5.27-2.93,9.54-6.55,9.54h-44.01c-0.99,0-1.97-0.33-2.86-0.95l-6.11-4.31
		c-2.26-1.59-3.7-4.93-3.7-8.58v-9.65c0-2.58,0.72-5.05,1.99-6.85l7.26-10.24c1.22-1.72,2.86-2.69,4.56-2.69h42.86
		C540.98,114.64,543.92,118.91,543.92,124.18z"/>
	<path class="st1" d="M120.86,34.96c4.59-4.41,17.14-13.69,23.08-16.2l18.23-7.7c1.42-0.6,2.93-0.96,4.47-1.08l27.72-2.05
		c0.32-0.02,0.64-0.04,0.96-0.04l183.42-1.11c1.1-0.01,2.19,0.11,3.26,0.36l22.31,5.1c0.5,0.11,0.99,0.25,1.47,0.42l26.7,9.23
		c1.28,0.44,2.49,1.07,3.58,1.86l13.25,9.54c2.52,1.81,4.31,4.41,5.08,7.34l27.91,107.22c0.18,0.68,0.41,1.35,0.7,1.99l0.66,1.49
		c1.54,3.46,4.55,6.12,8.27,7.31l16.65,5.33c1.44,0.46,2.79,1.15,3.99,2.03l34.88,25.61c2.11,1.55,3.71,3.65,4.59,6.06l10.77,29.14
		c0.52,1.41,0.79,2.9,0.79,4.4v124.95c0,3.06-1.11,6.03-3.14,8.39l-15.08,17.54c-2.59,3.01-6.44,4.76-10.51,4.78l-493.86,2.2
		c-3.76,0.02-7.36-1.45-9.96-4.05l-20.43-20.44c-2.37-2.37-3.73-5.5-3.82-8.78L3.49,233.58c-0.04-1.57,0.21-3.13,0.74-4.61
		l12.1-33.91c0.78-2.18,2.14-4.12,3.94-5.64l32.07-26.95c1.8-1.52,3.99-2.55,6.34-3l21.7-4.17c2.65-0.51,5.09-1.76,7.01-3.6h0
		c1.91-1.84,3.22-4.18,3.75-6.73l5.06-24.29L120.86,34.96z"/>
	<path class="st2" d="M148.61,144.42l-45.92,4.23c-0.41,0.03-11.38,1.21-11.78,1.28l-31.11,9.45c-3.06,0.5-5.88,1.91-8.07,4.01
		l-17.34,16.63c-1.32,1.27-2.39,2.76-3.14,4.41l-1.58,3.46c-2.95,6.45-0.61,14.01,5.53,17.86l28.38,17.82
		c4.42,2.78,9.59,4.26,14.88,4.26h400.29c8.66,0,17.18-2.16,24.72-6.26l30.4-16.54c6.33-3.45,9.18-10.76,6.76-17.35v0
		c-1.09-2.97-3.17-5.52-5.92-7.25l-21.04-13.27c-1.16-0.73-2.41-1.3-3.74-1.7l-22.12-8.34c-1.14-0.35-7.03-6.2-8.22-6.27
		l-97.07-5.32l-115.15-2.8L148.61,144.42z"/>
	<polygon class="st3" points="6.95,362.04 6.95,409.41 19.87,425.2 117.34,425.2 132.61,411.66 132.61,386.43 35.13,386.85 	"/>
	<path class="st3" d="M441.81,385.04l-0.34,24.37l8.04,9.01c3.84,4.3,9.45,6.78,15.35,6.78h88.17l10.57-13.53v-53.01l-22.31,28.2
		L441.81,385.04z"/>
	<g>
		<path class="st4" d="M36.88,245.98l-1.65,40.32c-0.1,2.35,1.95,4.3,4.5,4.28l76.36-0.51c2.47-0.02,4.46-1.88,4.44-4.16
			l-0.15-20.47c-0.01-2.05-1.65-3.78-3.85-4.06c-12.25-1.55-26.27-4.1-41.44-8.26c-11.91-3.27-22.59-7.01-31.97-10.79
			C40.24,241.18,37,243.08,36.88,245.98z"/>
		<path class="st5" d="M89.39,256.55c2.41,0.67,4.4,2.26,5.44,4.37c1.54,3.15,3.16,7.79,3.06,13.49c-0.07,4.19-1.03,7.75-2.16,10.54
			c-1.28,3.18-4.54,5.3-8.21,5.32l-30.67,0.2c-3.99,0.03-7.55-2.42-8.56-5.98c-1.16-4.09-2.06-9.33-1.75-15.38
			c0.31-6.21,1.81-11.5,3.48-15.63c1.63-4.02,6.36-6.17,10.81-4.93C70.36,251.22,79.87,253.88,89.39,256.55z"/>
	</g>
	<rect x="191.88" y="7.36" class="st5" width="61.76" height="221.13"/>
	<rect x="319.52" y="7.36" class="st5" width="61.76" height="221.13"/>
	<polygon class="st6" points="473.18,150 441.47,38.35 422.68,27.07 383.93,18.05 191.33,18.05 157.27,25.94 131.43,38.35 
		100.9,150 150.22,144.36 200.72,143.24 336.95,142.11 388.62,144.36 	"/>
	<polygon class="st0" points="180.76,311.68 5.61,311.68 6.95,362.04 35.13,389.11 541.29,389.11 563.61,360.91 563.61,311.68 
		385.1,311.68 385.1,330.46 367.48,350.76 202.51,350.4 180.76,330.46 	"/>
	<path class="st7" d="M268.84,142.11c23.15-13.04,64.25-31.26,92.78-57.52c22.5-20.71,45.74-38.98,58.93-56.86
		c8.54,4.29,11.21,6.32,19.75,10.61L472.01,150l-95.13-4.51L268.84,142.11z"/>
	<path class="st8" d="M180.76,317.08v-30.79c0-7.04,2.3-13.89,6.56-19.59l1.96-2.61c6.45-8.62,16.77-13.71,27.74-13.71H350.8
		c11.19,0,21.68,5.3,28.1,14.2v0c4.04,5.6,6.2,12.26,6.2,19.1v36.98c0,6.94-2.23,13.71-6.39,19.35l-0.97,1.31
		c-6.44,8.75-16.83,13.94-27.91,13.94h-129.5c-8.82,0-17.3-3.3-23.68-9.21l-5.28-4.89C184.59,334.88,180.76,326.18,180.76,317.08z"
		/>
	<polygon class="st9" points="211.85,250.77 211.85,353.12 216.33,354.14 215.99,250.38 	"/>
	<polygon class="st9" points="223.53,250.38 223.04,354.14 227.77,354.14 227.77,250.38 	"/>
	<polygon class="st9" points="233.81,250.78 233.32,354.54 238.06,354.54 238.06,250.78 	"/>
	<polygon class="st9" points="245.56,250.78 245.06,354.54 249.8,354.54 249.8,250.78 	"/>
	<polygon class="st9" points="257.3,250.78 256.81,354.54 261.54,354.54 261.54,250.78 	"/>
	<polygon class="st9" points="267.87,250.78 267.38,354.54 272.11,354.54 272.11,250.78 	"/>
	<polygon class="st9" points="280.79,250.78 280.3,354.54 285.03,354.54 285.03,250.78 	"/>
	<polygon class="st9" points="294.88,250.78 294.39,354.54 299.12,354.54 299.12,250.78 	"/>
	<polygon class="st9" points="306.63,250.78 306.13,354.54 310.87,354.54 310.87,250.78 	"/>
	<polygon class="st9" points="318.37,250.78 317.88,354.54 322.61,354.54 322.61,250.78 	"/>
	<polygon class="st9" points="330.11,250.78 329.62,354.54 334.36,354.54 334.36,250.78 	"/>
	<polygon class="st9" points="341.86,250.78 341.36,354.54 346.1,354.54 346.1,250.78 	"/>
	<polygon class="st9" points="352.43,250.78 351.93,354.54 356.67,354.54 356.67,250.78 	"/>
	<path class="st3" d="M56.01,356.53v-4.22c0-0.97,0.5-1.91,1.44-2.69l0.43-0.36c1.42-1.18,3.68-1.88,6.09-1.88h29.39
		c2.46,0,4.76,0.73,6.17,1.95l0,0c0.89,0.77,1.36,1.68,1.36,2.62v5.07c0,0.95-0.49,1.88-1.4,2.66l-0.21,0.18
		c-1.41,1.2-3.7,1.91-6.13,1.91H64.7c-1.94,0-3.8-0.45-5.2-1.26l-1.16-0.67C56.85,358.97,56.01,357.77,56.01,356.53z"/>
	<path class="st10" d="M471.61,357.52v-4.22c0-0.97,0.5-1.91,1.44-2.69l0.43-0.36c1.42-1.18,3.68-1.88,6.09-1.88h29.39
		c2.46,0,4.76,0.73,6.17,1.95h0c0.89,0.77,1.36,1.68,1.36,2.62v5.07c0,0.95-0.49,1.88-1.4,2.66l-0.21,0.18
		c-1.41,1.2-3.7,1.91-6.13,1.91H480.3c-1.94,0-3.8-0.45-5.2-1.26l-1.16-0.67C472.45,359.96,471.61,358.77,471.61,357.52z"/>
	<g>
		<path class="st4" d="M533.36,242.98l1.87,40.31c0.11,2.35-1.85,4.31-4.3,4.31h-73.41c-2.38,0-4.3-1.85-4.3-4.13l0-20.47
			c0-2.05,1.56-3.79,3.67-4.08c11.77-1.63,25.22-4.27,39.78-8.54c11.43-3.35,21.67-7.16,30.66-11
			C530.1,238.2,533.22,240.07,533.36,242.98z"/>
		<path class="st5" d="M482.95,253.89c-2.31,0.69-4.22,2.28-5.2,4.41c-1.46,3.16-2.98,7.81-2.85,13.51
			c0.09,4.18,1.05,7.75,2.15,10.52c1.26,3.17,4.4,5.27,7.93,5.27h29.48c3.84,0,7.24-2.47,8.18-6.04c1.09-4.1,1.92-9.34,1.58-15.39
			c-0.34-6.21-1.82-11.49-3.45-15.6c-1.59-4.01-6.16-6.13-10.43-4.86C501.21,248.44,492.08,251.16,482.95,253.89z"/>
	</g>
	<path class="st7" d="M188.98,0"/>
	<path class="st5" d="M539.8,127.49v17.48c0,3.81-2.48,6.89-5.55,6.89h-37.26c-0.84,0-1.66-0.24-2.42-0.69l-5.17-3.11
		c-1.91-1.15-3.13-3.56-3.13-6.2v-6.97c0-1.87,0.61-3.65,1.69-4.95l6.15-7.39c1.03-1.24,2.42-1.94,3.86-1.94h36.29
		C537.32,120.6,539.8,123.69,539.8,127.49z"/>
	<path class="st0" d="M27.19,124.88v24.06c0,5.24,3.07,9.49,6.86,9.49h46.09c1.04,0,2.06-0.32,2.99-0.95l6.4-4.28
		c2.37-1.58,3.87-4.9,3.87-8.54v-9.6c0-2.57-0.75-5.03-2.09-6.81l-7.6-10.18c-1.28-1.71-2.99-2.67-4.77-2.67H34.05
		C30.26,115.39,27.19,119.64,27.19,124.88z"/>
	<path class="st5" d="M31.5,128.18v17.38c0,3.78,2.6,6.85,5.81,6.85h39.02c0.88,0,1.74-0.23,2.53-0.69l5.42-3.09
		c2-1.14,3.28-3.54,3.28-6.17v-6.93c0-1.86-0.64-3.63-1.77-4.92l-6.44-7.35c-1.08-1.24-2.53-1.93-4.04-1.93h-38
		C34.1,121.32,31.5,124.39,31.5,128.18z"/>
</g>
</svg>
