<?xml version="1.0" encoding="utf-8"?>
<!-- Generator: Adobe Illustrator 24.0.2, SVG Export Plug-In . SVG Version: 6.00 Build 0)  -->
<svg version="1.1" id="Capa_1" xmlns="http://www.w3.org/2000/svg" xmlns:xlink="http://www.w3.org/1999/xlink" x="0px" y="0px"
	 viewBox="0 0 566.93 425.2" style="enable-background:new 0 0 566.93 425.2;" xml:space="preserve">
<style type="text/css">
	.st0{opacity:0.64;fill:#357776;}
	.st1{fill:#52A39C;}
	.st2{fill:#708694;}
	.st3{fill:#53BEB4;}
	.st4{fill:#263B50;}
	.st5{fill:#357776;}
	.st6{fill:#293D46;}
	.st7{fill:#394F5C;}
	.st8{fill:#303C44;}
	.st9{fill:#2E3F3E;}
	.st10{fill:#EAE2D7;}
	.st11{fill:#F9FDFC;}
</style>
<path class="st0" d="M69.57,422.39h429.4c37.68,0,68.22-30.55,68.22-68.22v0c0-37.68-30.54-68.22-68.22-68.22H69.57
	c-37.68,0-68.22,30.55-68.22,68.22v0C1.34,391.85,31.89,422.39,69.57,422.39z"/>
<g>
	<path class="st1" d="M125.59,32.79c4.44-4.13,16.6-12.84,22.36-15.2l17.66-7.22c1.37-0.56,2.84-0.9,4.33-1.01l26.85-1.92
		c0.31-0.02,0.62-0.03,0.93-0.04l177.65-1.05c1.06-0.01,2.13,0.11,3.16,0.34l21.61,4.78c0.48,0.11,0.96,0.24,1.42,0.39l25.86,8.66
		c1.24,0.42,2.41,1,3.47,1.74l12.83,8.95c2.44,1.7,4.18,4.13,4.92,6.89l27.04,100.55c0.17,0.64,0.4,1.26,0.68,1.87l0.64,1.4
		c1.49,3.24,4.41,5.74,8.01,6.85l16.12,5c1.39,0.43,2.7,1.08,3.87,1.91l33.78,24.02c2.04,1.45,3.59,3.43,4.45,5.68l10.43,27.33
		c0.51,1.33,0.76,2.72,0.76,4.13v117.18c0,2.87-1.08,5.65-3.04,7.87l-14.61,16.44c-2.51,2.82-6.24,4.47-10.18,4.48l-478.34,2.06
		c-3.64,0.02-7.12-1.36-9.64-3.8l-19.79-19.17c-2.29-2.22-3.61-5.16-3.7-8.23L11.9,219.05c-0.04-1.47,0.2-2.94,0.71-4.33l11.72-31.8
		c0.75-2.04,2.07-3.87,3.82-5.29l31.06-25.27c1.75-1.42,3.86-2.39,6.14-2.82l21.02-3.91c2.57-0.48,4.93-1.65,6.79-3.38l0,0
		c1.85-1.72,3.12-3.92,3.63-6.31l4.9-22.78L125.59,32.79z"/>
	<polygon class="st2" points="466.84,140.67 436.12,35.96 417.92,25.38 380.39,16.92 193.84,16.92 160.85,24.33 135.83,35.96 
		106.25,140.67 154.03,135.38 202.94,134.33 334.89,133.27 384.94,135.38 	"/>
	<path class="st3" d="M152.46,135.44l-44.48,3.96c-0.39,0.03-11.02,1.14-11.41,1.2l-30.13,8.86c-2.96,0.47-5.69,1.79-7.82,3.76
		l-16.79,15.6c-1.28,1.19-2.31,2.59-3.04,4.13l-1.53,3.24c-2.86,6.05-0.59,13.14,5.36,16.75l27.49,16.71
		c4.28,2.6,9.29,3.99,14.41,3.99h387.71c8.39,0,16.64-2.02,23.94-5.87l29.45-15.51c6.13-3.23,8.89-10.09,6.54-16.27v0
		c-1.06-2.79-3.07-5.18-5.73-6.8l-20.37-12.45c-1.12-0.68-2.34-1.22-3.62-1.6l-21.43-7.82c-1.11-0.32-6.81-5.81-7.96-5.88
		l-94.02-4.99l-111.53-2.62L152.46,135.44z"/>
	<polygon class="st4" points="15.25,339.52 15.25,383.94 27.77,398.75 122.18,398.75 136.96,386.06 136.96,362.39 42.55,362.79 	"/>
	<path class="st4" d="M436.46,361.09l-0.33,22.85l7.79,8.45c3.72,4.04,9.15,6.36,14.87,6.36h85.4l10.24-12.69v-49.71l-21.61,26.44
		L436.46,361.09z"/>
	<polygon class="st5" points="183.6,292.3 13.96,292.3 15.25,339.52 42.55,364.9 532.81,364.9 554.42,338.46 554.42,292.3 
		381.52,292.3 381.52,309.9 364.46,328.94 204.67,328.6 183.6,309.9 	"/>
	<path class="st6" d="M268.91,133.27c22.43-12.23,62.23-29.31,89.86-53.94c21.79-19.42,44.3-36.56,57.08-53.32
		c8.27,4.02,10.86,5.93,19.13,9.95l30.71,104.71l-92.14-4.23L268.91,133.27z"/>
	<path class="st7" d="M183.6,297.36v-28.87c0-6.6,2.22-13.03,6.35-18.37l1.9-2.45c6.25-8.08,16.24-12.86,26.87-12.86H348.3
		c10.84,0,21,4.97,27.22,13.32l0,0c3.91,5.25,6.01,11.5,6.01,17.91v34.68c0,6.51-2.16,12.85-6.19,18.15l-0.94,1.23
		c-6.24,8.21-16.3,13.08-27.03,13.08H221.94c-8.54,0-16.76-3.09-22.94-8.64l-5.11-4.59C187.32,314.05,183.6,305.89,183.6,297.36z"/>
	<polygon class="st8" points="213.71,235.17 213.71,331.15 218.06,332.11 217.73,234.81 	"/>
	<polygon class="st8" points="225.03,234.81 224.55,332.11 229.14,332.11 229.14,234.81 	"/>
	<polygon class="st8" points="234.99,235.18 234.51,332.49 239.1,332.49 239.1,235.18 	"/>
	<polygon class="st8" points="246.36,235.18 245.89,332.49 250.47,332.49 250.47,235.18 	"/>
	<polygon class="st8" points="257.74,235.18 257.26,332.49 261.85,332.49 261.85,235.18 	"/>
	<polygon class="st8" points="267.98,235.18 267.5,332.49 272.09,332.49 272.09,235.18 	"/>
	<polygon class="st8" points="280.49,235.18 280.01,332.49 284.6,332.49 284.6,235.18 	"/>
	<polygon class="st8" points="294.14,235.18 293.66,332.49 298.25,332.49 298.25,235.18 	"/>
	<polygon class="st8" points="305.51,235.18 305.04,332.49 309.62,332.49 309.62,235.18 	"/>
	<polygon class="st8" points="316.89,235.18 316.41,332.49 321,332.49 321,235.18 	"/>
	<polygon class="st8" points="328.26,235.18 327.79,332.49 332.37,332.49 332.37,235.18 	"/>
	<polygon class="st8" points="339.64,235.18 339.16,332.49 343.75,332.49 343.75,235.18 	"/>
	<polygon class="st8" points="349.88,235.18 349.4,332.49 353.99,332.49 353.99,235.18 	"/>
	<path class="st4" d="M62.77,334.35v-3.96c0-0.91,0.49-1.79,1.4-2.52l0.42-0.34c1.37-1.11,3.57-1.76,5.9-1.76h28.47
		c2.38,0,4.61,0.68,5.98,1.83l0,0c0.86,0.72,1.32,1.58,1.32,2.46v4.76c0,0.89-0.48,1.76-1.36,2.49l-0.21,0.17
		c-1.37,1.13-3.58,1.79-5.94,1.79H71.19c-1.88,0-3.68-0.42-5.04-1.19l-1.12-0.63C63.59,336.64,62.77,335.52,62.77,334.35z"/>
	<path class="st9" d="M465.31,335.28v-3.96c0-0.91,0.49-1.79,1.4-2.52l0.42-0.34c1.37-1.11,3.57-1.76,5.9-1.76h28.47
		c2.38,0,4.61,0.68,5.98,1.83l0,0c0.86,0.72,1.32,1.58,1.32,2.46v4.76c0,0.89-0.48,1.76-1.36,2.49l-0.21,0.17
		c-1.37,1.13-3.58,1.79-5.94,1.79h-27.56c-1.88,0-3.68-0.42-5.04-1.19l-1.12-0.63C466.13,337.57,465.31,336.45,465.31,335.28z"/>
	<g>
		<path class="st10" d="M525.12,227.86l1.81,37.8c0.11,2.2-1.79,4.05-4.16,4.05h-71.1c-2.3,0-4.17-1.73-4.17-3.87v-19.2
			c0-1.92,1.51-3.55,3.56-3.83c11.4-1.53,24.43-4.01,38.53-8.01c11.07-3.14,20.99-6.71,29.7-10.32
			C521.96,223.38,524.99,225.14,525.12,227.86z"/>
		<path class="st11" d="M476.3,238.1c-2.24,0.65-4.08,2.14-5.04,4.13c-1.42,2.96-2.89,7.32-2.76,12.67
			c0.09,3.92,1.01,7.27,2.08,9.87c1.22,2.97,4.26,4.94,7.68,4.94h28.56c3.72,0,7.01-2.31,7.93-5.66c1.05-3.84,1.86-8.76,1.53-14.43
			c-0.33-5.83-1.76-10.77-3.35-14.63c-1.54-3.76-5.97-5.75-10.1-4.55C493.98,232.98,485.14,235.54,476.3,238.1z"/>
	</g>
	<g>
		<path class="st10" d="M44.24,230.68l-1.6,37.81c-0.09,2.21,1.89,4.03,4.36,4.02l73.96-0.47c2.39-0.02,4.32-1.76,4.3-3.9
			l-0.14-19.19c-0.01-1.92-1.6-3.54-3.73-3.8c-11.87-1.46-25.44-3.84-40.14-7.75c-11.53-3.07-21.88-6.57-30.97-10.12
			C47.49,226.18,44.36,227.96,44.24,230.68z"/>
		<path class="st11" d="M95.1,240.59c2.33,0.63,4.26,2.12,5.27,4.1c1.5,2.95,3.06,7.3,2.97,12.65c-0.07,3.92-1,7.27-2.09,9.88
			c-1.24,2.98-4.4,4.97-7.95,4.99l-29.7,0.19c-3.87,0.02-7.31-2.27-8.29-5.61c-1.12-3.84-2-8.75-1.7-14.42
			c0.3-5.83,1.75-10.79,3.37-14.65c1.58-3.77,6.16-5.79,10.47-4.62C76.67,235.59,85.88,238.09,95.1,240.59z"/>
	</g>
	<path class="st6" d="M191.56,0"/>
	<path class="st5" d="M43.69,122.26v15.01c0,3.27,2.85,5.92,6.36,5.92h42.76c0.96,0,1.91-0.2,2.77-0.59l5.94-2.67
		c2.2-0.99,3.59-3.06,3.59-5.33v-5.99c0-1.6-0.7-3.14-1.94-4.25l-7.05-6.35c-1.19-1.07-2.78-1.67-4.43-1.67H50.05
		C46.54,116.35,43.69,119,43.69,122.26z"/>
	<path class="st5" d="M529.4,123.58v15.01c0,3.27-2.82,5.92-6.29,5.92h-42.27c-0.95,0-1.89-0.2-2.74-0.59l-5.87-2.67
		c-2.17-0.99-3.55-3.06-3.55-5.33v-5.99c0-1.6,0.69-3.14,1.91-4.25l6.97-6.35c1.17-1.07,2.74-1.67,4.38-1.67h41.17
		C526.58,117.66,529.4,120.31,529.4,123.58z"/>
</g>
</svg>
