<?xml version="1.0" encoding="utf-8"?>
<!-- Generator: Adobe Illustrator 24.0.2, SVG Export Plug-In . SVG Version: 6.00 Build 0)  -->
<svg version="1.1" id="Capa_1" xmlns="http://www.w3.org/2000/svg" xmlns:xlink="http://www.w3.org/1999/xlink" x="0px" y="0px"
	 viewBox="0 0 226.77 170.08" style="enable-background:new 0 0 226.77 170.08;" xml:space="preserve">
<style type="text/css">
	.st0{fill:#708693;}
	.st1{fill:#3A4D5B;}
	.st2{fill:#313E44;}
	.st3{fill:#357776;}
	.st4{fill:#52A39C;}
	.st5{fill:#53BEB4;}
	.st6{fill:#263B50;}
	.st7{fill:#EAE2D7;}
	.st8{fill:#F9FDFC;}
	.st9{fill:#708694;}
	.st10{fill:#293D46;}
	.st11{fill:#394F5C;}
	.st12{fill:#303C44;}
	.st13{fill:#2E3F3E;}
	.st14{opacity:0.64;fill:#357776;}
	.st15{opacity:0.51;fill:#357776;}
	.st16{fill:#273B48;}
	.st17{fill:#808080;}
</style>
<g>
	
		<rect x="185.35" y="5.81" transform="matrix(-1 -1.224647e-16 1.224647e-16 -1 381.0034 160.4724)" class="st0" width="10.3" height="148.84"/>
	
		<rect x="170.81" y="5.81" transform="matrix(-1 -1.224647e-16 1.224647e-16 -1 356.1644 160.4724)" class="st1" width="14.54" height="148.84"/>
	
		<rect x="165.97" y="5.81" transform="matrix(-1 -1.224647e-16 1.224647e-16 -1 339.2012 160.4724)" class="st2" width="7.27" height="148.84"/>
	<polygon class="st2" points="195.65,5.81 172.93,19.62 173.24,154.66 165.97,154.66 165.97,5.81 	"/>
	
		<rect x="159.3" y="0.73" transform="matrix(-1 -1.224647e-16 1.224647e-16 -1 362.2227 6.5439)" class="st0" width="43.62" height="5.08"/>
	
		<rect x="159.3" y="0.73" transform="matrix(-1 -1.224647e-16 1.224647e-16 -1 344.6537 6.5439)" class="st1" width="26.05" height="5.08"/>
	<polygon class="st0" points="194.42,120.17 217.01,154.66 185.28,154.66 184.7,12.47 194.42,7.44 	"/>
	<rect x="180.2" y="112.21" class="st0" width="2.73" height="42.45"/>
	<polygon class="st2" points="180.2,112.21 180,154.66 168.39,154.66 	"/>
</g>
<g>
	<rect x="62.22" y="78.57" class="st2" width="6.23" height="30.87"/>
	<rect x="65.54" y="92.29" class="st2" width="23.69" height="5.15"/>
</g>
<g>
	
		<rect x="160.29" y="78.12" transform="matrix(-1 -1.224647e-16 1.224647e-16 -1 326.5445 187.1167)" class="st2" width="5.96" height="30.87"/>
	
		<rect x="140.44" y="91.84" transform="matrix(-1 -1.224647e-16 1.224647e-16 -1 303.5139 188.8318)" class="st2" width="22.63" height="5.15"/>
</g>
<g>
	<path class="st0" d="M52.69,94.46L52.69,94.46c2.31,0,4.19-1.88,4.19-4.19l0-7.09c0-2.31-1.88-4.19-4.19-4.19h0
		c-2.31,0-4.19,1.88-4.19,4.19l0,7.09C48.5,92.59,50.38,94.46,52.69,94.46z"/>
	<path class="st1" d="M54.7,94.86L54.7,94.86c2.31,0,4.19-1.88,4.19-4.19l0-7.09c0-2.31-1.88-4.19-4.19-4.19h0
		c-2.31,0-4.19,1.88-4.19,4.19l0,7.09C50.51,92.98,52.39,94.86,54.7,94.86z"/>
	<ellipse class="st0" cx="54.7" cy="84.35" rx="1.84" ry="2.18"/>
	<ellipse class="st0" cx="54.74" cy="90.25" rx="1.84" ry="2.18"/>
</g>
<g>
	<rect x="36.4" y="5.61" class="st0" width="9.99" height="148.84"/>
	<rect x="46.39" y="5.61" class="st1" width="14.11" height="148.84"/>
	<rect x="58.15" y="5.61" class="st2" width="7.05" height="148.84"/>
	<polygon class="st2" points="36.4,5.61 58.44,19.42 58.15,154.46 65.2,154.46 65.2,5.61 	"/>
	<rect x="29.34" y="0.53" class="st0" width="42.32" height="5.08"/>
	<rect x="46.39" y="0.53" class="st1" width="25.28" height="5.08"/>
	<polygon class="st0" points="37.59,119.97 15.68,154.46 46.46,154.46 47.03,12.27 37.59,7.24 	"/>
	
		<rect x="48.74" y="112.01" transform="matrix(-1 -1.224647e-16 1.224647e-16 -1 100.1273 266.4668)" class="st0" width="2.65" height="42.45"/>
	<polygon class="st2" points="51.39,112.01 51.58,154.46 62.85,154.46 	"/>
</g>
<g>
	<path class="st3" d="M153.59,49.29v3.68c0,0.8-0.45,1.45-1,1.45h-6.69c-0.15,0-0.3-0.05-0.43-0.15l-0.93-0.66
		c-0.34-0.24-0.56-0.75-0.56-1.31v-1.47c0-0.39,0.11-0.77,0.3-1.04l1.1-1.56c0.19-0.26,0.43-0.41,0.69-0.41h6.52
		C153.14,47.84,153.59,48.49,153.59,49.29z"/>
	<path class="st4" d="M89.24,35.72c0.7-0.67,2.61-2.08,3.51-2.46l2.77-1.17c0.22-0.09,0.45-0.15,0.68-0.16l4.22-0.31
		c0.05,0,0.1-0.01,0.15-0.01l27.9-0.17c0.17,0,0.33,0.02,0.5,0.05l3.39,0.78c0.08,0.02,0.15,0.04,0.22,0.06l4.06,1.4
		c0.2,0.07,0.38,0.16,0.54,0.28l2.02,1.45c0.38,0.28,0.66,0.67,0.77,1.12l4.25,16.31c0.03,0.1,0.06,0.21,0.11,0.3l0.1,0.23
		c0.23,0.53,0.69,0.93,1.26,1.11l2.53,0.81c0.22,0.07,0.42,0.17,0.61,0.31l5.3,3.9c0.32,0.24,0.56,0.56,0.7,0.92l1.64,4.43
		c0.08,0.22,0.12,0.44,0.12,0.67v19c0,0.47-0.17,0.92-0.48,1.28l-2.29,2.67c-0.39,0.46-0.98,0.72-1.6,0.73L77.1,89.58
		c-0.57,0-1.12-0.22-1.51-0.62l-3.11-3.11c-0.36-0.36-0.57-0.84-0.58-1.33l-0.51-18.59c-0.01-0.24,0.03-0.48,0.11-0.7l1.84-5.16
		c0.12-0.33,0.33-0.63,0.6-0.86l4.88-4.1c0.27-0.23,0.61-0.39,0.96-0.46l3.3-0.63c0.4-0.08,0.77-0.27,1.07-0.55l0,0
		c0.29-0.28,0.49-0.64,0.57-1.02l0.77-3.69L89.24,35.72z"/>
	<path class="st5" d="M93.46,52.37l-6.99,0.64c-0.06,0.01-1.73,0.18-1.79,0.19l-4.73,1.44c-0.46,0.08-0.89,0.29-1.23,0.61
		l-2.64,2.53c-0.2,0.19-0.36,0.42-0.48,0.67l-0.24,0.53c-0.45,0.98-0.09,2.13,0.84,2.72l4.32,2.71c0.67,0.42,1.46,0.65,2.26,0.65
		h60.88c1.32,0,2.61-0.33,3.76-0.95l4.62-2.52c0.96-0.52,1.4-1.64,1.03-2.64l0,0c-0.17-0.45-0.48-0.84-0.9-1.1l-3.2-2.02
		c-0.18-0.11-0.37-0.2-0.57-0.26l-3.36-1.27c-0.17-0.05-1.07-0.94-1.25-0.95l-14.76-0.81l-17.51-0.43L93.46,52.37z"/>
	<polygon class="st6" points="71.92,85.47 71.92,92.67 73.88,95.07 88.71,95.07 91.03,93.02 91.03,89.18 76.2,89.24 	"/>
	<path class="st6" d="M138.06,88.97l-0.05,3.71l1.22,1.37c0.58,0.65,1.44,1.03,2.34,1.03h13.41l1.61-2.06v-8.06l-3.39,4.29
		L138.06,88.97z"/>
	<g>
		<path class="st7" d="M76.47,67.82l-0.25,6.13c-0.01,0.36,0.3,0.65,0.68,0.65l11.61-0.08c0.38,0,0.68-0.29,0.68-0.63l-0.02-3.11
			c0-0.31-0.25-0.57-0.59-0.62c-1.86-0.24-3.99-0.62-6.3-1.26c-1.81-0.5-3.44-1.07-4.86-1.64C76.98,67.09,76.49,67.38,76.47,67.82z"
			/>
		<path class="st8" d="M84.45,69.42c0.37,0.1,0.67,0.34,0.83,0.66c0.23,0.48,0.48,1.18,0.47,2.05c-0.01,0.64-0.16,1.18-0.33,1.6
			c-0.2,0.48-0.69,0.81-1.25,0.81l-4.66,0.03c-0.61,0-1.15-0.37-1.3-0.91c-0.18-0.62-0.31-1.42-0.27-2.34
			c0.05-0.95,0.28-1.75,0.53-2.38c0.25-0.61,0.97-0.94,1.64-0.75C81.56,68.61,83.01,69.02,84.45,69.42z"/>
	</g>
	<polygon class="st9" points="142.83,53.22 138.01,36.24 135.15,34.52 129.25,33.15 99.96,33.15 94.78,34.35 90.85,36.24 
		86.21,53.22 93.71,52.36 101.39,52.19 122.11,52.02 129.97,52.36 	"/>
	<polygon class="st3" points="98.35,77.81 71.71,77.81 71.92,85.47 76.2,89.59 153.19,89.59 156.58,85.3 156.58,77.81 129.43,77.81 
		129.43,80.67 126.75,83.75 101.66,83.7 98.35,80.67 	"/>
	<path class="st10" d="M111.75,52.02c3.52-1.98,9.77-4.75,14.11-8.75c3.42-3.15,6.96-5.93,8.96-8.65c1.3,0.65,1.71,0.96,3,1.61
		l4.82,16.98l-14.47-0.69L111.75,52.02z"/>
	<path class="st11" d="M98.35,78.63v-4.68c0-1.07,0.35-2.11,1-2.98l0.3-0.4c0.98-1.31,2.55-2.09,4.22-2.09h20.35
		c1.7,0,3.3,0.81,4.27,2.16l0,0c0.61,0.85,0.94,1.87,0.94,2.9v5.62c0,1.06-0.34,2.08-0.97,2.94l-0.15,0.2
		c-0.98,1.33-2.56,2.12-4.25,2.12h-19.7c-1.34,0-2.63-0.5-3.6-1.4l-0.8-0.74C98.94,81.34,98.35,80.01,98.35,78.63z"/>
	<polygon class="st12" points="103.08,68.55 103.08,84.11 103.76,84.27 103.71,68.49 	"/>
	<polygon class="st12" points="104.86,68.49 104.78,84.27 105.5,84.27 105.5,68.49 	"/>
	<polygon class="st12" points="106.42,68.55 106.35,84.33 107.07,84.33 107.07,68.55 	"/>
	<polygon class="st12" points="108.21,68.55 108.13,84.33 108.85,84.33 108.85,68.55 	"/>
	<polygon class="st12" points="109.99,68.55 109.92,84.33 110.64,84.33 110.64,68.55 	"/>
	<polygon class="st12" points="111.6,68.55 111.53,84.33 112.25,84.33 112.25,68.55 	"/>
	<polygon class="st12" points="113.57,68.55 113.49,84.33 114.21,84.33 114.21,68.55 	"/>
	<polygon class="st12" points="115.71,68.55 115.63,84.33 116.36,84.33 116.36,68.55 	"/>
	<polygon class="st12" points="117.5,68.55 117.42,84.33 118.14,84.33 118.14,68.55 	"/>
	<polygon class="st12" points="119.28,68.55 119.21,84.33 119.93,84.33 119.93,68.55 	"/>
	<polygon class="st12" points="121.07,68.55 120.99,84.33 121.71,84.33 121.71,68.55 	"/>
	<polygon class="st12" points="122.85,68.55 122.78,84.33 123.5,84.33 123.5,68.55 	"/>
	<polygon class="st12" points="124.46,68.55 124.39,84.33 125.11,84.33 125.11,68.55 	"/>
	<path class="st6" d="M79.38,84.63v-0.64c0-0.15,0.08-0.29,0.22-0.41l0.07-0.05c0.22-0.18,0.56-0.29,0.93-0.29h4.47
		c0.37,0,0.72,0.11,0.94,0.3l0,0c0.13,0.12,0.21,0.26,0.21,0.4v0.77c0,0.14-0.07,0.29-0.21,0.4l-0.03,0.03
		c-0.22,0.18-0.56,0.29-0.93,0.29H80.7c-0.29,0-0.58-0.07-0.79-0.19l-0.18-0.1C79.51,85,79.38,84.82,79.38,84.63z"/>
	<path class="st13" d="M142.59,84.78v-0.64c0-0.15,0.08-0.29,0.22-0.41l0.07-0.05c0.22-0.18,0.56-0.29,0.93-0.29h4.47
		c0.37,0,0.72,0.11,0.94,0.3l0,0c0.13,0.12,0.21,0.26,0.21,0.4v0.77c0,0.14-0.07,0.29-0.21,0.4l-0.03,0.03
		c-0.22,0.18-0.56,0.29-0.93,0.29h-4.33c-0.29,0-0.58-0.07-0.79-0.19l-0.18-0.1C142.72,85.15,142.59,84.97,142.59,84.78z"/>
	<g>
		<path class="st7" d="M151.98,67.36l0.28,6.13c0.02,0.36-0.28,0.66-0.65,0.66h-11.17c-0.36,0-0.65-0.28-0.65-0.63v-3.11
			c0-0.31,0.24-0.58,0.56-0.62c1.79-0.25,3.84-0.65,6.05-1.3c1.74-0.51,3.3-1.09,4.66-1.67C151.49,66.63,151.96,66.92,151.98,67.36z
			"/>
		<path class="st8" d="M144.31,69.02c-0.35,0.1-0.64,0.35-0.79,0.67c-0.22,0.48-0.45,1.19-0.43,2.06c0.01,0.64,0.16,1.18,0.33,1.6
			c0.19,0.48,0.67,0.8,1.21,0.8h4.48c0.58,0,1.1-0.38,1.24-0.92c0.17-0.62,0.29-1.42,0.24-2.34c-0.05-0.94-0.28-1.75-0.53-2.37
			c-0.24-0.61-0.94-0.93-1.59-0.74C147.09,68.19,145.7,68.61,144.31,69.02z"/>
	</g>
	<path class="st10" d="M99.6,30.4"/>
	<path class="st8" d="M152.96,49.8v2.66c0,0.58-0.38,1.05-0.84,1.05h-5.67c-0.13,0-0.25-0.04-0.37-0.1l-0.79-0.47
		c-0.29-0.18-0.48-0.54-0.48-0.94v-1.06c0-0.28,0.09-0.56,0.26-0.75l0.93-1.12c0.16-0.19,0.37-0.3,0.59-0.3h5.52
		C152.58,48.75,152.96,49.22,152.96,49.8z"/>
	<path class="st3" d="M74.99,49.4v3.66c0,0.8,0.47,1.44,1.04,1.44h7.01c0.16,0,0.31-0.05,0.45-0.14l0.97-0.65
		c0.36-0.24,0.59-0.75,0.59-1.3v-1.46c0-0.39-0.11-0.76-0.32-1.04l-1.16-1.55c-0.19-0.26-0.45-0.41-0.73-0.41h-6.83
		C75.46,47.95,74.99,48.6,74.99,49.4z"/>
	<path class="st8" d="M75.65,49.9v2.64c0,0.58,0.4,1.04,0.88,1.04h5.93c0.13,0,0.27-0.04,0.39-0.1l0.82-0.47
		c0.3-0.17,0.5-0.54,0.5-0.94v-1.05c0-0.28-0.1-0.55-0.27-0.75l-0.98-1.12c-0.16-0.19-0.39-0.29-0.61-0.29h-5.78
		C76.05,48.86,75.65,49.32,75.65,49.9z"/>
</g>
<g>
	<path class="st0" d="M36.2,51.83L36.2,51.83c3.79,0,6.86-3.07,6.86-6.86V23.01c0-3.79-3.07-6.86-6.86-6.86h0
		c-3.79,0-6.86,3.07-6.86,6.86v21.95C29.33,48.75,32.41,51.83,36.2,51.83z"/>
	<path class="st1" d="M36.2,51.83L36.2,51.83c3.79,0,6.86-2.68,6.86-5.99V22.14c0-3.31-3.07-5.99-6.86-5.99h0
		c1.53,4.07,3.25,10.18,3.27,17.7C39.49,41.5,37.74,47.72,36.2,51.83z"/>
	<g>
		<path class="st1" d="M41.74,42.12H30.65c-1.81,0-3.28-1.47-3.28-3.28v0c0-1.81,1.47-3.28,3.28-3.28h11.09
			c1.81,0,3.28,1.47,3.28,3.28v0C45.02,40.65,43.55,42.12,41.74,42.12z"/>
		<path class="st1" d="M41.74,32.42H30.65c-1.81,0-3.28-1.47-3.28-3.28v0c0-1.81,1.47-3.28,3.28-3.28h11.09
			c1.81,0,3.28,1.47,3.28,3.28v0C45.02,30.95,43.55,32.42,41.74,32.42z"/>
		<path class="st2" d="M41.85,32.46h-2.37c-1.81,0-3.28-1.47-3.28-3.28v0c0-1.81,1.47-3.28,3.28-3.28h2.37
			c1.81,0,3.28,1.47,3.28,3.28v0C45.13,30.99,43.66,32.46,41.85,32.46z"/>
		<path class="st2" d="M41.41,42.16h-2.37c-1.81,0-3.28-1.47-3.28-3.28v0c0-1.81,1.47-3.28,3.28-3.28h2.37
			c1.81,0,3.28,1.47,3.28,3.28v0C44.69,40.69,43.22,42.16,41.41,42.16z"/>
	</g>
	<g>
		<path class="st0" d="M36.17,92.48L36.17,92.48c3.79,0,6.86-3.07,6.86-6.86V63.66c0-3.79-3.07-6.86-6.86-6.86h0
			c-3.79,0-6.86,3.07-6.86,6.86v21.95C29.3,89.41,32.38,92.48,36.17,92.48z"/>
		<path class="st1" d="M36.17,92.48L36.17,92.48c3.79,0,6.86-2.68,6.86-5.99V62.79c0-3.31-3.07-5.99-6.86-5.99h0
			c1.53,4.07,3.25,10.18,3.27,17.7C39.46,82.16,37.71,88.37,36.17,92.48z"/>
		<g>
			<path class="st1" d="M41.71,82.77H30.62c-1.81,0-3.28-1.47-3.28-3.28v0c0-1.81,1.47-3.28,3.28-3.28h11.09
				c1.81,0,3.28,1.47,3.28,3.28v0C44.99,81.31,43.52,82.77,41.71,82.77z"/>
			<path class="st1" d="M41.71,73.07H30.62c-1.81,0-3.28-1.47-3.28-3.28v0c0-1.81,1.47-3.28,3.28-3.28h11.09
				c1.81,0,3.28,1.47,3.28,3.28v0C44.99,71.6,43.52,73.07,41.71,73.07z"/>
			<path class="st2" d="M41.82,73.11h-2.37c-1.81,0-3.28-1.47-3.28-3.28v0c0-1.81,1.47-3.28,3.28-3.28h2.37
				c1.81,0,3.28,1.47,3.28,3.28v0C45.1,71.64,43.63,73.11,41.82,73.11z"/>
			<path class="st2" d="M41.38,82.82h-2.37c-1.81,0-3.28-1.47-3.28-3.28v0c0-1.81,1.47-3.28,3.28-3.28h2.37
				c1.81,0,3.28,1.47,3.28,3.28v0C44.66,81.35,43.19,82.82,41.38,82.82z"/>
		</g>
	</g>
</g>
<path class="st14" d="M88.58,152.17h55.55c8.04,0,14.56-6.52,14.56-14.56v0c0-8.04-6.52-14.56-14.56-14.56H88.58
	c-8.04,0-14.56,6.52-14.56,14.56v0C74.02,145.65,80.54,152.17,88.58,152.17z"/>
<path class="st15" d="M101.62,155.88h7.62c2.09,0,3.78-1.69,3.78-3.78v0c0-2.09-1.69-3.78-3.78-3.78h-7.62
	c-2.09,0-3.78,1.69-3.78,3.78v0C97.84,154.18,99.53,155.88,101.62,155.88z"/>
<path class="st14" d="M45.37,166.12h40.72c3.38,0,6.12-2.74,6.12-6.12v0c0-3.38-2.74-6.12-6.12-6.12H45.37
	c-3.38,0-6.12,2.74-6.12,6.12v0C39.25,163.39,41.99,166.12,45.37,166.12z"/>
<g>
	<path class="st1" d="M42.97,157.86l-0.47-0.52c-0.6-0.67-0.94-1.58-0.94-2.52v-5.92c0-0.95,0.34-1.85,0.94-2.52l0.47-0.52
		c0.6-0.67,1.41-1.04,2.26-1.04h9.78h7.24c0.85,0,1.66,0.38,2.26,1.04l0,0c0.6,0.67,0.94,1.58,0.94,2.52v6.94
		c0,0.65-0.16,1.28-0.46,1.83l-0.02,0.03c-0.58,1.07-1.62,1.73-2.74,1.73h-17C44.38,158.9,43.57,158.53,42.97,157.86z"/>
	<path class="st16" d="M62.25,144.8c-1.9,0-3.8,0-5.7,0c0.27,0.24,3.08,2.86,2.81,6.79c-0.25,3.56-2.93,6.68-6.56,7.31
		c3.14,0,6.29,0,9.43,0c1.12,0,2.16-0.66,2.74-1.73l0.02-0.03c0.3-0.55,0.46-1.19,0.46-1.83v-6.94c0-0.95-0.34-1.85-0.94-2.52
		C63.91,145.18,63.1,144.8,62.25,144.8z"/>
</g>
<g>
	<path class="st17" d="M76.51,142.05"/>
	<path class="st17" d="M70.99,142.94"/>
</g>
<g>
	<path class="st1" d="M67.86,157.89l-0.47-0.52c-0.6-0.67-0.94-1.58-0.94-2.52v-5.92c0-0.95,0.34-1.85,0.94-2.52l0.47-0.52
		c0.6-0.67,1.41-1.04,2.26-1.04h9.78h7.24c0.85,0,1.66,0.38,2.26,1.04l0,0c0.6,0.67,0.94,1.58,0.94,2.52v6.94
		c0,0.65-0.16,1.28-0.46,1.83l-0.02,0.03c-0.58,1.07-1.62,1.73-2.74,1.73h-17C69.27,158.93,68.46,158.55,67.86,157.89z"/>
	<path class="st16" d="M87.14,144.83c-1.9,0-3.8,0-5.7,0c0.27,0.24,3.08,2.86,2.81,6.79c-0.25,3.56-2.93,6.68-6.56,7.31
		c3.14,0,6.29,0,9.43,0c1.12,0,2.16-0.66,2.74-1.73l0.02-0.03c0.3-0.55,0.46-1.19,0.46-1.83v-6.94c0-0.95-0.34-1.85-0.94-2.52
		C88.8,145.2,87.99,144.83,87.14,144.83z"/>
</g>
<g>
	<path class="st1" d="M56.92,143.44l-0.47-0.52c-0.6-0.67-0.94-1.58-0.94-2.52v-5.92c0-0.95,0.34-1.85,0.94-2.52l0.47-0.52
		c0.6-0.67,1.41-1.04,2.26-1.04h9.78h7.24c0.85,0,1.66,0.38,2.26,1.04l0,0c0.6,0.67,0.94,1.58,0.94,2.52v6.94
		c0,0.65-0.16,1.28-0.46,1.83l-0.02,0.03c-0.58,1.07-1.62,1.73-2.74,1.73h-17C58.33,144.49,57.52,144.11,56.92,143.44z"/>
	<path class="st16" d="M76.2,130.39c-1.9,0-3.8,0-5.7,0c0.27,0.24,3.08,2.86,2.81,6.79c-0.25,3.56-2.93,6.68-6.56,7.31
		c3.14,0,6.29,0,9.43,0c1.12,0,2.16-0.66,2.74-1.73l0.02-0.03c0.3-0.55,0.46-1.19,0.46-1.83v-6.94c0-0.95-0.34-1.85-0.94-2.52
		C77.86,130.76,77.05,130.39,76.2,130.39z"/>
</g>
<path class="st17" d="M110.6,133.78h-10.33h-1.59v16.48l1.59,1.57h11.12l1.59-1.57v-14.12L110.6,133.78z M109.79,137.67h-8.64v-2.04
	h8.64V137.67z"/>
<polyline class="st1" points="100.31,140 100.31,149.16 101.52,150.03 109.96,150.03 111.16,149.16 111.16,141.31 109.35,140 
	101.52,140 "/>
<g>
	<polygon class="st17" points="103.2,148.77 109.97,142.31 108.96,141.46 102.2,147.91 	"/>
	<polygon class="st17" points="110.08,147.81 102.9,141.72 101.96,142.62 109.13,148.71 	"/>
</g>
</svg>
